<svg xmlns="http://www.w3.org/2000/svg" xmlns:xlink="http://www.w3.org/1999/xlink" width="252.7" height="55.1" viewBox="0 0 252.7 55.1"><defs><clipPath id="a"><rect width="252.7" height="55.1" transform="translate(0 0)" fill="none"/></clipPath></defs><g transform="translate(0 0)"><g clip-path="url(#a)"><path d="M70.3,1.6A.684.684,0,0,1,71,.9h4.4a.684.684,0,0,1,.7.7V21.5H85a.684.684,0,0,1,.7.7v4.1a.684.684,0,0,1-.7.7H71a.684.684,0,0,1-.7-.7Z" fill="#052460"/><path d="M93.1,1.6a.684.684,0,0,1,.7-.7h15.5a.684.684,0,0,1,.7.7V5.7a.684.684,0,0,1-.7.7H99V11h8.5a.684.684,0,0,1,.7.7v4.1a.684.684,0,0,1-.7.7H99v5h10.3a.684.684,0,0,1,.7.7v4.1a.684.684,0,0,1-.7.7H93.8a.684.684,0,0,1-.7-.7Z" fill="#052460"/><path d="M118.7,1.2a.684.684,0,0,1,.7-.7h.9l14.9,14.3V1.5a.684.684,0,0,1,.7-.7h4.5a.684.684,0,0,1,.7.7V26.6a.684.684,0,0,1-.7.7h-.6a1.056,1.056,0,0,1-.5-.2L124.6,12.3V26.2a.684.684,0,0,1-.7.7h-4.4a.684.684,0,0,1-.7-.7V1.1Z" fill="#052460"/><path d="M151.3,1.6a.684.684,0,0,1,.7-.7h9.1a13.124,13.124,0,0,1,13.1,13A13.21,13.21,0,0,1,161.1,27H152a.684.684,0,0,1-.7-.7Zm9.4,19.9a7.287,7.287,0,0,0,7.3-7.6,7.2,7.2,0,0,0-7.3-7.5h-3.6V21.5Z" fill="#052460"/><path d="M182.4,1.6a.684.684,0,0,1,.7-.7h15.5a.684.684,0,0,1,.7.7V5.7a.684.684,0,0,1-.7.7H188.3V11h8.5a.684.684,0,0,1,.7.7v4.1a.684.684,0,0,1-.7.7h-8.5v5h10.3a.684.684,0,0,1,.7.7v4.1a.684.684,0,0,1-.7.7H183.1a.684.684,0,0,1-.7-.7Z" fill="#052460"/><path d="M208,1.6a.684.684,0,0,1,.7-.7h11.2A8.066,8.066,0,0,1,228,9c0,4.5-2.3,6.2-5.5,7.5l5.1,9.5a.7.7,0,0,1-.6,1.1h-5a.855.855,0,0,1-.6-.3l-5-9.9h-2.6v9.5a.684.684,0,0,1-.7.7h-4.4a.684.684,0,0,1-.7-.7V1.6Zm11.4,10.5a2.974,2.974,0,0,0,2.8-3,2.8,2.8,0,0,0-2.8-2.8h-5.5v5.8Z" fill="#052460"/><path d="M235.2,23.5l1.8-3.1a.961.961,0,0,1,1.3-.2c.1,0,2.8,2.1,5.3,2.1s2.6-.9,2.6-2.2-1.3-2.8-3.8-3.8c-3.2-1.3-7.2-3.8-7.2-8.3S238.1.6,243.8.6s6.9,2,8,2.8a.942.942,0,0,1,.2,1.2l-1.9,2.9a1.193,1.193,0,0,1-1.3.5c-.3-.2-3.1-2.2-5.3-2.2s-2.4.9-2.4,1.9,1.1,2.4,4.1,3.6c2.9,1.2,7.5,3.4,7.5,8.5s-3.3,7.7-8.8,7.7-7.5-2-8.4-2.9-.5-.5-.2-1Z" fill="#052460"/><path d="M78.6,35a7.659,7.659,0,0,1,5.3,2.1.375.375,0,0,1,0,.6l-.6.6a.375.375,0,0,1-.6,0,6.556,6.556,0,0,0-4.2-1.7A6.276,6.276,0,0,0,72.3,43a6.19,6.19,0,0,0,6.2,6.3c3.5,0,3-.8,4.2-1.7.2-.2.4-.2.5,0l.7.6c.2.1.1.4,0,.6a7.381,7.381,0,0,1-5.4,2.1,7.938,7.938,0,0,1-8-7.9,8.024,8.024,0,0,1,8-8Z" fill="#052460"/><path d="M97.4,35a7.938,7.938,0,0,1,7.9,8,7.9,7.9,0,1,1-15.8,0,7.938,7.938,0,0,1,7.9-8m0,14.3A6.4,6.4,0,1,0,91,42.9a6.445,6.445,0,0,0,6.4,6.4" fill="#052460"/><path d="M118.8,35a7.938,7.938,0,0,1,7.9,8,7.9,7.9,0,1,1-15.8,0,7.938,7.938,0,0,1,7.9-8m0,14.3a6.4,6.4,0,1,0-6.4-6.4,6.445,6.445,0,0,0,6.4,6.4" fill="#052460"/><path d="M133.4,35.7a.43.43,0,0,1,.4-.4h4.9a4.908,4.908,0,0,1,4.9,4.9,5,5,0,0,1-4.9,5h-3.6v5.2a.43.43,0,0,1-.4.4h-.8a.43.43,0,0,1-.4-.4V35.8Zm5.2,7.8a3.436,3.436,0,0,0,3.4-3.4,3.209,3.209,0,0,0-3.4-3.2h-3.5v6.5h3.5Z" fill="#052460"/><path d="M149.8,35.7a.43.43,0,0,1,.4-.4h8.7a.43.43,0,0,1,.4.4v.6a.43.43,0,0,1-.4.4h-7.4v5.4h6.3a.43.43,0,0,1,.4.4v.6a.43.43,0,0,1-.4.4h-6.3v5.6h7.4a.43.43,0,0,1,.4.4v.6a.43.43,0,0,1-.4.4h-8.7a.43.43,0,0,1-.4-.4V35.7Z" fill="#052460"/><path d="M166.2,35.7a.43.43,0,0,1,.4-.4h5.7a4.781,4.781,0,0,1,4.8,4.7c0,2.6-1.3,3.7-3.3,4.5l3,5.6c.2.3,0,.6-.4.6h-1.1a.52.52,0,0,1-.4-.2L172,44.7h-4.2v5.6a.43.43,0,0,1-.4.4h-.9a.43.43,0,0,1-.4-.4V35.7Zm6,7.5a3.222,3.222,0,0,0,3.2-3.2,3.137,3.137,0,0,0-3.2-3.1h-4.3v6.3Z" fill="#052460"/><path d="M182,50.1l6.7-14.9c0-.1.2-.2.4-.2h.2a.52.52,0,0,1,.4.2l6.7,14.9c.1.3,0,.6-.4.6h-.9a.52.52,0,0,1-.4-.2l-1.6-3.6h-7.8l-1.6,3.6c0,.1-.2.2-.4.2h-.9A.441.441,0,0,1,182,50.1Zm10.5-4.7c-1.1-2.4-2.1-4.8-3.2-7.2h-.2l-3.2,7.2Z" fill="#052460"/><path d="M203.4,36.7h-3.8a.43.43,0,0,1-.4-.4v-.6a.43.43,0,0,1,.4-.4H209a.43.43,0,0,1,.4.4v.6a.43.43,0,0,1-.4.4h-3.8V50.2a.43.43,0,0,1-.4.4H204a.43.43,0,0,1-.4-.4V36.7Z" fill="#052460"/><rect width="1.7" height="15.4" rx="0.4" transform="translate(215 35.3)" fill="#052460"/><path d="M222.5,35.8c-.1-.3,0-.6.4-.6h.9a.52.52,0,0,1,.4.2l5.5,12.4,5.5-12.4c0-.1.2-.2.4-.2h.9a.441.441,0,0,1,.4.6l-6.7,14.9c0,.1-.2.2-.4.2h-.2a.52.52,0,0,1-.4-.2Z" fill="#052460"/><path d="M242.5,35.7a.43.43,0,0,1,.4-.4h8.7a.43.43,0,0,1,.4.4v.6a.43.43,0,0,1-.4.4h-7.4v5.4h6.3a.43.43,0,0,1,.4.4v.6a.43.43,0,0,1-.4.4h-6.3v5.6h7.4a.43.43,0,0,1,.4.4v.6a.43.43,0,0,1-.4.4h-8.7a.43.43,0,0,1-.4-.4V35.7Z" fill="#052460"/><path d="M37.1,4.8,29.4.3A2.016,2.016,0,0,0,28.3,0a2.22,2.22,0,0,0-2.2,2.2V18.3a1.5,1.5,0,0,0,1.5,1.6,1.721,1.721,0,0,0,1.6-1.6V3.9l6.4,3.7a1.884,1.884,0,0,0,.8.2,1.609,1.609,0,0,0,.8-3Z" fill="#00b3d8"/><path d="M22.4,19.5,12.2,9.2l7-1.9a1.834,1.834,0,0,0,1-.7,1.721,1.721,0,0,0,.2-1.2,1.517,1.517,0,0,0-1.9-1.1L9.9,6.6a2.075,2.075,0,0,0-1,.6,2.234,2.234,0,0,0,0,3.2L20.2,21.8a1.606,1.606,0,0,0,1.1.5,1.58,1.58,0,0,0,1.6-1.6,1.606,1.606,0,0,0-.5-1.1Z" fill="#97d9eb"/><path d="M18.4,26.3H3.9l3.7-6.4a1.612,1.612,0,0,0-2.8-1.6L.3,26A2.016,2.016,0,0,0,0,27.1a2.271,2.271,0,0,0,.6,1.6,2.36,2.36,0,0,0,1.6.7H18.3a1.721,1.721,0,0,0,1.6-1.6,1.58,1.58,0,0,0-1.6-1.6Z" fill="#ceebf0"/><path d="M21.9,33.4a1.606,1.606,0,0,0-.5-1.1,1.569,1.569,0,0,0-2.2,0L8.9,42.5,7,35.5a1.6,1.6,0,0,0-1.9-1.1,1.834,1.834,0,0,0-1,.7,1.721,1.721,0,0,0-.2,1.2l2.3,8.6a2.075,2.075,0,0,0,.6,1,2.36,2.36,0,0,0,1.6.7A2.452,2.452,0,0,0,10,46L21.4,34.7a1.606,1.606,0,0,0,.5-1.1Z" fill="#febe10"/><path d="M29.3,36.7h.2a1.6,1.6,0,1,0-3.2,0V51.2l-6.4-3.7a1.633,1.633,0,0,0-2.2.6,1.55,1.55,0,0,0,.6,2.2L26,54.8a2.016,2.016,0,0,0,1.1.3,2.271,2.271,0,0,0,1.6-.6,2.36,2.36,0,0,0,.7-1.6v-16h-.1Z" fill="#fbad18"/><path d="M45.9,44.7,34.6,33.3a1.557,1.557,0,1,0-2.2,2.2L42.6,45.8l-7,1.9a1.6,1.6,0,0,0-1.1,1.9,1.834,1.834,0,0,0,.7,1,1.884,1.884,0,0,0,.8.2h.4L45,48.5a2.326,2.326,0,0,0,1.1-3.8Z" fill="#f7941d"/><path d="M55.1,27.2v.2a2.388,2.388,0,0,0-2.2-1.5H36.8a1.721,1.721,0,0,0-1.6,1.6,1.58,1.58,0,0,0,1.6,1.6H51.2l-3.7,6.4a1.721,1.721,0,0,0-.2,1.2,1.834,1.834,0,0,0,.7,1,2.354,2.354,0,0,0,.8.2,1.723,1.723,0,0,0,1.4-.8l4.5-7.7a2.016,2.016,0,0,0,.3-1.1v-.9Z" fill="#f57e25"/><path d="M51,18.5,48.7,9.9a2.075,2.075,0,0,0-.6-1,2.36,2.36,0,0,0-1.6-.7,1.99,1.99,0,0,0-1.6.7L33.5,20.2a1.557,1.557,0,1,0,2.2,2.2L46,12.2l1.9,7a1.584,1.584,0,0,0,3.1-.4v-.3Z" fill="#0076b6"/></g></g></svg>